<?xml version="1.0" standalone="no"?>
<!DOCTYPE svg PUBLIC "-//W3C//DTD SVG 20010904//EN"
 "http://www.w3.org/TR/2001/REC-SVG-20010904/DTD/svg10.dtd">
<svg version="1.0" xmlns="http://www.w3.org/2000/svg"
 width="239.000000pt" height="280.000000pt" viewBox="0 0 239.000000 280.000000"
 preserveAspectRatio="xMidYMid meet">

<g transform="translate(0.000000,280.000000) scale(0.100000,-0.100000)"
fill="#000000" stroke="none">
<path d="M1200 2536 c0 -2 7 -7 16 -10 8 -3 12 -2 9 4 -6 10 -25 14 -25 6z"/>
<path d="M1182 2489 c-12 -19 -11 -19 8 -9 14 8 26 8 40 0 22 -12 27 -1 8 18
-18 18 -42 14 -56 -9z"/>
<path d="M1341 2210 c14 -31 19 -36 19 -24 0 6 -7 19 -16 30 -14 18 -14 18 -3
-6z"/>
<path d="M1056 2163 c-6 -14 -5 -15 5 -6 7 7 10 15 7 18 -3 3 -9 -2 -12 -12z"/>
<path d="M1014 2088 c-9 -18 -46 -79 -81 -135 -36 -57 -62 -107 -59 -112 4 -5
1 -13 -5 -17 -8 -5 -9 -3 -4 7 5 9 5 11 -2 4 -19 -19 -67 -109 -53 -100 10 6
12 4 7 -8 -18 -44 -18 -50 -1 -27 10 14 25 30 33 36 8 6 11 16 7 22 -3 6 -1
14 5 18 7 4 9 3 5 -4 -3 -6 -2 -13 3 -16 5 -4 27 14 49 39 41 47 82 149 82
208 0 17 11 51 25 75 13 23 20 42 15 42 -5 0 -17 -15 -26 -32z m-181 -333 c-3
-9 -8 -14 -10 -11 -3 3 -2 9 2 15 9 16 15 13 8 -4z"/>
<path d="M1405 2075 c9 -21 23 -47 32 -57 10 -11 12 -18 4 -18 -8 0 -7 -9 4
-30 9 -17 13 -35 10 -40 -13 -21 46 -122 112 -190 37 -40 73 -81 79 -91 5 -11
13 -16 17 -13 4 4 8 2 8 -4 3 -22 5 -27 21 -52 9 -14 25 -43 37 -65 30 -59 25
-36 -9 39 -33 74 -115 218 -232 406 -101 162 -101 162 -83 115z m76 -162 c13
-16 12 -17 -3 -4 -10 7 -18 15 -18 17 0 8 8 3 21 -13z"/>
<path d="M775 1690 c-9 -16 -13 -30 -11 -30 3 0 12 14 21 30 9 17 13 30 11 30
-3 0 -12 -13 -21 -30z"/>
<path d="M696 1533 c-6 -14 -5 -15 5 -6 7 7 10 15 7 18 -3 3 -9 -2 -12 -12z"/>
<path d="M1745 899 c-31 -69 -58 -101 -130 -150 -53 -36 -113 -89 -101 -89 4
0 34 14 66 30 46 23 71 45 107 93 43 59 98 165 90 173 -2 3 -16 -23 -32 -57z"/>
<path d="M765 750 c10 -11 20 -20 23 -20 3 0 -3 9 -13 20 -10 11 -20 20 -23
20 -3 0 3 -9 13 -20z"/>
</g>
</svg>
