<?xml version="1.0" standalone="no"?>
<!DOCTYPE svg PUBLIC "-//W3C//DTD SVG 20010904//EN"
 "http://www.w3.org/TR/2001/REC-SVG-20010904/DTD/svg10.dtd">
<svg version="1.0" xmlns="http://www.w3.org/2000/svg"
 width="3258.000000pt" height="1763.000000pt" viewBox="0 0 3258.000000 1763.000000"
 preserveAspectRatio="xMidYMid meet">

<g transform="translate(0.000000,1763.000000) scale(0.100000,-0.100000)"
fill="#000000" stroke="none">
<path d="M8510 15924 c-228 -19 -420 -57 -605 -119 -387 -129 -752 -355 -1055
-652 l-105 -103 -110 0 c-566 0 -1149 -142 -1579 -383 -485 -271 -862 -673
-1125 -1197 -127 -254 -215 -504 -266 -754 -13 -65 -26 -120 -28 -122 -1 -2
-55 -17 -117 -33 -432 -112 -874 -321 -1218 -575 -538 -397 -879 -900 -1033
-1521 -112 -454 -114 -1064 -4 -1560 60 -275 199 -617 340 -839 307 -485 799
-872 1337 -1054 l109 -37 -5 -45 c-14 -111 -18 -562 -7 -671 92 -892 629
-1529 1557 -1849 199 -69 399 -113 701 -156 28 -4 37 -14 79 -92 96 -179 197
-314 349 -471 369 -380 838 -589 1440 -642 182 -15 486 -6 665 21 74 11 138
20 142 20 4 0 24 -30 44 -68 437 -790 1234 -1307 2239 -1451 929 -134 1920 78
2375 508 41 39 77 71 80 71 3 0 64 -26 135 -59 353 -159 739 -279 1079 -336
224 -37 348 -47 576 -47 392 0 716 61 1055 197 296 119 555 282 765 482 l88
84 119 -35 c986 -292 1871 -95 2534 564 193 191 353 401 464 605 l38 70 261 0
c281 0 390 13 604 70 749 200 1410 838 1641 1581 l32 101 132 66 c160 80 272
163 397 294 161 167 283 374 352 596 l33 108 35 -8 c19 -4 73 -8 120 -8 100 0
179 25 278 88 l63 39 112 -16 c155 -21 360 -43 562 -58 221 -16 995 -16 1220
0 644 47 1223 136 1773 273 112 28 488 133 835 235 1364 399 2030 585 2218
620 136 26 402 26 484 1 135 -42 211 -106 266 -222 54 -115 46 -236 -24 -355
-42 -72 -155 -185 -239 -239 -38 -24 -68 -46 -68 -49 0 -11 149 11 228 34 209
61 370 181 472 352 79 134 110 252 117 447 5 132 3 161 -16 234 -120 475 -669
759 -1589 821 -317 21 -523 12 -1082 -50 -740 -81 -967 -94 -1675 -94 -553 0
-746 7 -1165 40 -818 63 -1714 218 -2441 421 l-166 46 -11 136 c-15 166 -50
345 -97 489 -47 142 -159 365 -242 482 -87 121 -252 286 -373 372 -112 79
-288 172 -415 217 l-90 32 -1 202 c-3 803 -346 1444 -962 1795 -86 49 -270
131 -374 165 -11 4 -19 22 -23 54 -72 566 -270 989 -627 1339 -308 302 -682
493 -1138 581 -181 35 -528 44 -720 19 -392 -52 -773 -188 -1123 -404 l-89
-54 -31 23 c-167 124 -342 204 -537 246 -128 27 -408 24 -550 -6 -233 -50
-506 -162 -696 -286 l-85 -55 -49 39 c-64 50 -141 87 -227 107 -84 20 -279 14
-368 -11 -33 -9 -65 -18 -71 -19 -6 0 -48 46 -94 104 -166 210 -328 383 -503
537 -499 440 -1038 687 -1657 759 -197 22 -596 15 -785 -14 -426 -67 -782
-182 -1150 -370 l-120 -61 -100 58 c-450 263 -871 392 -1318 405 -84 2 -172 2
-197 0z m365 -44 c376 -42 765 -177 1127 -391 l122 -72 115 61 c380 199 794
329 1236 388 179 24 560 24 740 1 331 -44 588 -123 900 -277 313 -154 588
-353 855 -620 144 -143 303 -326 390 -448 35 -48 50 -61 65 -58 11 2 56 15
100 27 113 31 273 32 370 2 76 -24 173 -78 220 -123 l30 -29 82 55 c111 73
267 155 392 204 512 203 995 154 1376 -140 l53 -41 93 61 c126 82 377 206 535
264 304 113 566 160 884 160 292 0 493 -33 755 -124 115 -40 353 -155 447
-216 370 -239 636 -566 802 -984 124 -315 180 -710 127 -911 -48 -187 -169
-348 -356 -476 -46 -32 -184 -100 -266 -133 -41 -16 -68 -29 -61 -29 19 -1
177 61 252 99 196 99 339 239 420 413 47 102 70 193 70 280 0 81 -2 81 124 31
265 -106 453 -229 641 -418 372 -375 568 -918 552 -1531 -3 -157 -7 -191 -30
-265 -61 -201 -142 -336 -290 -484 -120 -120 -90 -107 40 17 132 127 232 290
290 475 29 95 12 92 168 31 257 -102 495 -278 663 -492 218 -276 360 -669 379
-1044 l6 -122 46 -15 c406 -131 1162 -291 1771 -375 658 -91 1079 -121 1830
-128 768 -7 1079 8 1800 87 500 55 565 60 835 60 547 0 979 -77 1311 -235 292
-138 449 -301 525 -545 20 -63 24 -96 24 -205 -1 -133 -12 -204 -47 -310 -64
-189 -179 -329 -349 -424 -57 -32 -189 -81 -219 -81 -9 0 19 35 67 84 169 171
210 352 121 533 -58 119 -151 191 -298 230 -95 25 -337 23 -490 -5 -165 -30
-731 -185 -1610 -442 -96 -29 -263 -76 -370 -105 -220 -61 -329 -92 -477 -136
-56 -17 -108 -32 -115 -33 -7 -2 -20 -5 -28 -8 -144 -53 -627 -171 -945 -232
-292 -57 -333 -64 -435 -76 -52 -6 -120 -15 -150 -20 -216 -37 -730 -76 -1125
-86 -323 -8 -794 12 -1095 46 -278 32 -335 41 -348 58 -7 9 -24 55 -38 102
-14 47 -32 106 -40 133 -25 80 -55 282 -69 456 -7 95 -13 138 -14 101 -2 -188
27 -476 70 -670 16 -74 29 -139 29 -145 0 -10 -85 -68 -105 -71 -5 -1 -30 -11
-55 -22 -65 -29 -130 -36 -205 -22 l-65 12 6 112 c7 125 -14 362 -47 536 -20
102 -96 356 -105 347 -2 -2 5 -30 16 -63 30 -87 56 -195 77 -319 20 -124 23
-453 4 -586 -22 -156 -121 -392 -237 -566 -57 -84 -200 -237 -289 -308 -28
-22 -51 -43 -53 -47 -2 -5 -7 -8 -12 -8 -4 0 -39 -19 -76 -42 -77 -46 -184
-101 -189 -96 -1 2 3 44 11 93 27 182 38 436 25 583 -17 192 -38 330 -67 447
-28 114 -79 268 -101 305 -9 16 -12 17 -7 5 3 -11 22 -65 41 -120 40 -118 77
-297 94 -450 31 -290 -26 -886 -97 -1018 -8 -15 -13 -27 -10 -27 6 0 -10 -53
-29 -95 -72 -161 -106 -231 -142 -293 -24 -41 -43 -76 -43 -78 0 -3 -19 -33
-43 -67 -151 -222 -291 -376 -497 -547 -23 -19 -47 -40 -53 -45 -7 -6 -28 -22
-47 -35 -19 -13 -41 -30 -48 -37 -7 -7 -28 -20 -46 -28 -18 -9 -42 -24 -52
-33 -36 -32 -208 -119 -379 -192 -128 -54 -386 -118 -555 -137 -144 -16 -474
-8 -601 15 -134 24 -359 94 -359 112 0 3 -10 6 -21 7 -42 3 -279 135 -279 155
0 6 -3 9 -6 5 -20 -20 -266 201 -380 340 -74 90 -83 105 -156 231 -78 133 -90
137 -21 6 112 -215 273 -408 468 -563 44 -35 79 -68 77 -73 -1 -5 2 -7 7 -4 6
4 38 -11 73 -32 114 -70 193 -110 289 -147 92 -36 264 -85 299 -85 10 0 22 -6
29 -13 8 -10 -5 -40 -57 -125 -37 -61 -79 -126 -94 -144 -15 -18 -28 -38 -28
-45 0 -6 -3 -13 -7 -15 -5 -1 -35 -37 -68 -78 -82 -104 -104 -127 -233 -254
-131 -129 -171 -164 -256 -223 -33 -24 -69 -49 -79 -55 -86 -62 -350 -205
-389 -212 -7 -1 -31 -10 -53 -20 -103 -45 -268 -94 -406 -120 -298 -57 -736
-44 -1049 30 -171 40 -318 80 -329 90 -2 2 12 27 31 56 48 73 123 225 154 311
88 242 118 406 118 657 0 287 -36 478 -145 753 -44 109 -133 292 -148 301 -5
4 3 -18 19 -48 94 -175 184 -444 222 -661 30 -172 30 -443 -1 -610 -25 -136
-57 -252 -96 -350 -37 -90 -50 -120 -55 -125 -4 -3 -12 -21 -20 -40 -8 -19
-17 -37 -20 -40 -3 -3 -21 -32 -39 -65 -43 -76 -97 -143 -180 -223 -88 -84
-196 -172 -210 -172 -6 0 -11 -4 -11 -9 0 -5 -25 -24 -55 -42 -30 -18 -55 -37
-55 -41 0 -4 -4 -8 -9 -8 -5 0 -48 -22 -96 -50 -89 -52 -253 -132 -296 -145
-13 -4 -28 -11 -34 -15 -5 -4 -39 -17 -75 -29 -36 -12 -74 -26 -85 -31 -19 -9
-262 -71 -330 -84 -16 -4 -102 -15 -190 -26 -554 -68 -1193 34 -1810 290 -55
23 -118 48 -139 56 -22 8 -44 18 -50 22 -6 5 -30 15 -54 22 -24 7 -45 17 -47
20 -3 4 13 32 35 63 130 182 242 520 239 724 l-2 88 -7 -86 c-23 -256 -148
-552 -321 -761 -119 -143 -244 -236 -469 -345 -641 -313 -1557 -378 -2364
-168 -107 28 -348 107 -416 137 -219 97 -414 200 -402 213 4 5 2 5 -4 2 -14
-8 -205 119 -329 218 -164 132 -372 349 -479 500 -295 416 -417 758 -450 1265
-2 30 -2 -19 0 -110 6 -262 71 -578 155 -750 l17 -35 -31 -7 c-162 -37 -492
-55 -707 -38 -280 21 -495 68 -748 161 -157 58 -181 70 -322 154 -245 148
-464 360 -634 613 -314 471 -464 1158 -381 1751 20 143 71 346 120 476 37 99
139 309 191 394 15 24 22 41 16 37 -40 -24 -198 -351 -258 -532 -84 -256 -114
-462 -114 -786 0 -352 53 -633 185 -983 13 -36 20 -67 15 -70 -4 -3 -39 0 -77
5 -206 32 -272 47 -498 111 -119 35 -354 129 -465 187 -90 47 -195 105 -200
112 -3 3 -35 24 -73 47 -37 24 -73 47 -80 52 -174 140 -313 278 -414 411 -67
90 -156 230 -173 274 -7 18 -38 88 -84 191 -96 211 -168 673 -151 970 7 130
22 285 28 291 2 3 57 -5 123 -17 79 -14 181 -23 305 -26 198 -6 321 4 497 39
88 17 111 19 165 9 91 -18 326 -25 452 -15 l110 9 -215 6 c-316 8 -524 53
-750 160 -509 242 -863 768 -879 1305 -1 43 -5 81 -8 84 -12 11 6 -279 22
-355 86 -414 345 -780 701 -991 101 -60 184 -97 307 -139 111 -37 113 -35 -68
-60 -148 -21 -483 -16 -613 9 -301 56 -603 184 -882 371 -632 426 -1009 1063
-1115 1885 -35 269 -30 700 11 975 119 802 560 1451 1291 1901 303 187 706
356 1030 433 45 11 86 22 91 25 5 3 12 29 15 58 10 78 70 306 117 441 249 722
714 1281 1330 1601 431 223 890 332 1471 350 l165 5 105 103 c422 415 988 696
1524 756 112 13 373 14 480 2z"/>
<path d="M14785 14061 c-45 -6 -20 -8 104 -9 185 -2 319 -20 463 -63 448 -133
770 -463 959 -982 l43 -119 45 8 c303 47 534 44 802 -11 330 -67 586 -202 810
-425 64 -63 129 -131 145 -150 16 -20 26 -31 23 -25 -3 5 -33 44 -66 85 -259
321 -621 517 -1062 575 -139 19 -448 19 -571 1 -72 -11 -96 -12 -102 -3 -4 7
-21 52 -38 101 -18 49 -54 135 -82 190 -231 463 -575 729 -1048 812 -98 17
-338 25 -425 15z"/>
<path d="M14668 14043 c7 -3 16 -2 19 1 4 3 -2 6 -13 5 -11 0 -14 -3 -6 -6z"/>
<path d="M5739 7043 l-34 -38 38 34 c20 19 37 36 37 38 0 8 -8 0 -41 -34z"/>
<path d="M21947 7005 c9 -19 18 -33 21 -31 4 5 -26 66 -33 66 -3 0 3 -16 12
-35z"/>
<path d="M5644 6938 l-19 -23 23 19 c21 18 27 26 19 26 -2 0 -12 -10 -23 -22z"/>
<path d="M5599 6883 c-13 -16 -12 -17 4 -4 9 7 17 15 17 17 0 8 -8 3 -21 -13z"/>
<path d="M5559 6833 c-13 -16 -12 -17 4 -4 9 7 17 15 17 17 0 8 -8 3 -21 -13z"/>
<path d="M5520 6780 c-12 -16 -19 -30 -16 -30 2 0 14 14 26 30 12 17 19 30 16
30 -2 0 -14 -13 -26 -30z"/>
<path d="M5483 6728 c-15 -20 -25 -38 -20 -38 3 0 12 11 21 25 17 26 16 35 -1
13z"/>
<path d="M7772 4145 c0 -16 2 -22 5 -12 2 9 2 23 0 30 -3 6 -5 -1 -5 -18z"/>
</g>
</svg>
