<?xml version="1.0" standalone="no"?>
<!DOCTYPE svg PUBLIC "-//W3C//DTD SVG 20010904//EN"
 "http://www.w3.org/TR/2001/REC-SVG-20010904/DTD/svg10.dtd">
<svg version="1.0" xmlns="http://www.w3.org/2000/svg"
 width="500.000000pt" height="410.000000pt" viewBox="0 0 500.000000 410.000000"
 preserveAspectRatio="xMidYMid meet">

<g transform="translate(0.000000,410.000000) scale(0.100000,-0.100000)"
fill="#000000" stroke="none">
<path d="M3075 4039 c-17 -12 -50 -41 -74 -63 -41 -39 -43 -40 -37 -15 5 23 2
27 -24 33 -17 3 -30 12 -30 20 0 11 -11 8 -42 -14 -51 -34 -60 -47 -82 -120
-23 -80 -32 -90 -52 -62 l-16 23 -20 -26 -20 -26 -59 58 c-33 32 -72 62 -87
67 -15 5 -34 14 -42 21 -45 37 -188 84 -212 69 -5 -3 -8 -15 -5 -25 6 -23 -6
-24 -38 -3 -50 33 -135 -11 -135 -71 0 -38 29 -68 86 -88 54 -18 123 -74 139
-114 22 -53 28 -138 15 -240 -25 -206 12 -378 101 -469 40 -40 48 -64 65 -184
5 -34 18 -70 35 -100 5 -8 18 -32 29 -52 11 -20 29 -39 40 -43 25 -8 16 -25
-13 -25 -17 0 -19 -2 -7 -10 11 -7 9 -11 -13 -19 -16 -6 -35 -11 -43 -11 -8 0
-36 -5 -61 -11 l-45 -12 33 -14 c21 -9 54 -13 86 -11 48 4 51 3 42 -15 -6 -10
-26 -28 -45 -39 -43 -25 -39 -33 8 -14 19 8 65 20 101 26 84 15 97 8 90 -55
-5 -43 22 -145 39 -145 4 0 10 -17 14 -37 10 -55 63 -149 127 -224 34 -40 75
-72 163 -129 28 -19 32 -26 37 -88 3 -37 10 -79 16 -94 9 -25 16 -28 55 -28
34 0 45 -4 49 -18 4 -18 43 -32 89 -32 11 0 28 -10 38 -22 l19 -23 16 23 c9
12 25 22 36 22 19 0 19 4 13 60 -4 37 -3 60 3 60 6 0 41 27 78 60 37 33 72 60
76 60 4 0 29 20 56 45 46 43 50 45 98 40 28 -3 56 -1 64 4 17 11 -3 40 -110
159 -87 97 -160 159 -249 214 l-35 21 50 13 c27 7 97 18 155 24 104 10 260 53
337 94 18 9 55 21 83 27 28 6 62 17 76 23 26 14 64 58 64 75 0 6 4 11 10 11
14 0 40 55 40 85 0 42 -18 65 -73 90 -39 18 -47 26 -34 31 10 3 29 4 42 2 32
-6 31 3 0 40 -29 35 -33 86 -9 113 16 17 15 20 -15 48 -17 16 -31 34 -31 40 0
15 -34 31 -67 32 -26 0 -27 1 -6 9 43 17 54 50 49 141 -5 82 -6 84 -31 87 -16
2 -45 23 -73 53 -25 27 -52 49 -58 49 -7 0 -26 23 -43 50 -17 28 -34 50 -39
50 -4 0 -16 14 -25 30 -11 17 -27 30 -38 30 -53 0 -131 77 -189 186 -48 89
-75 112 -147 125 -54 10 -65 15 -87 48 -17 24 -23 44 -20 59 6 19 2 22 -22 22
-26 0 -141 20 -204 35 -18 5 -35 0 -55 -16z m-68 -281 c-3 -8 -6 -5 -6 6 -1
11 2 17 5 13 3 -3 4 -12 1 -19z m133 12 c0 -5 -4 -10 -10 -10 -5 0 -10 5 -10
10 0 6 5 10 10 10 6 0 10 -4 10 -10z m-233 -52 c-3 -8 -6 -5 -6 6 -1 11 2 17
5 13 3 -3 4 -12 1 -19z m443 -18 c8 -5 11 -10 5 -10 -5 0 -17 5 -25 10 -8 5
-10 10 -5 10 6 0 17 -5 25 -10z m-284 -57 c-7 -7 -26 7 -26 19 0 6 6 6 15 -2
9 -7 13 -15 11 -17z m64 -53 c0 -5 -2 -10 -4 -10 -3 0 -8 5 -11 10 -3 6 -1 10
4 10 6 0 11 -4 11 -10z m70 -62 c0 -4 -13 4 -30 19 -16 14 -30 31 -30 37 0 5
14 -3 30 -19 17 -16 30 -32 30 -37z m277 -25 c-3 -10 -5 -4 -5 12 0 17 2 24 5
18 2 -7 2 -21 0 -30z m-741 -40 c-7 -7 -26 7 -26 19 0 6 6 6 15 -2 9 -7 13
-15 11 -17z m88 -75 c25 -29 44 -53 42 -55 -1 -2 -28 22 -59 52 -31 30 -50 55
-42 55 7 0 34 -23 59 -52z m64 -93 c-3 -3 -9 2 -12 12 -6 14 -5 15 5 6 7 -7
10 -15 7 -18z m440 -45 c17 -11 32 -25 32 -31 0 -7 -11 -4 -27 7 -61 40 -66
61 -5 24z m97 -38 c-8 -8 -25 17 -25 38 0 9 6 6 16 -8 9 -13 13 -26 9 -30z
m-40 -72 c4 -19 24 -55 44 -80 43 -51 61 -83 60 -102 0 -9 -2 -8 -6 2 -3 8
-22 35 -42 60 -49 61 -68 98 -76 145 -8 49 9 28 20 -25z m59 44 c3 -8 2 -12
-4 -9 -6 3 -10 10 -10 16 0 14 7 11 14 -7z m381 -65 c-3 -3 -17 -4 -32 0 -25
5 -26 6 -5 9 12 2 22 9 22 15 0 7 4 6 9 -3 6 -8 8 -17 6 -21z m-298 -16 c-3
-10 -5 -4 -5 12 0 17 2 24 5 18 2 -7 2 -21 0 -30z m540 -39 c-3 -3 -12 -4 -19
-1 -8 3 -5 6 6 6 11 1 17 -2 13 -5z m-547 -39 c0 -5 -5 -3 -10 5 -5 8 -10 20
-10 25 0 6 5 3 10 -5 5 -8 10 -19 10 -25z m-368 -221 c34 -14 91 -32 127 -40
36 -8 78 -17 94 -20 15 -4 27 -10 27 -14 0 -15 -228 49 -290 81 -51 27 -29 23
42 -7z m-343 -94 c0 -10 -3 -8 -9 5 -12 27 -12 43 0 25 5 -8 9 -22 9 -30z
m738 14 c-3 -3 -12 -4 -19 -1 -8 3 -5 6 6 6 11 1 17 -2 13 -5z m50 -10 c-3 -3
-12 -4 -19 -1 -8 3 -5 6 6 6 11 1 17 -2 13 -5z m263 2 c0 -2 -7 -7 -16 -10 -8
-3 -12 -2 -9 4 6 10 25 14 25 6z m-1016 -96 c-7 -6 -24 22 -23 40 0 9 6 5 14
-10 7 -14 11 -27 9 -30z m66 -73 c19 -21 20 -26 7 -21 -10 3 -25 21 -34 38 -8
17 -11 27 -6 21 4 -5 19 -23 33 -38z m631 -143 l44 -14 -43 4 c-42 4 -92 37
-92 59 0 6 11 0 24 -12 13 -12 43 -29 67 -37z m219 21 c-7 -8 -20 -15 -29 -15
-11 1 -8 5 9 15 32 18 35 18 20 0z m-62 -32 c-10 -2 -28 -2 -40 0 -13 2 -5 4
17 4 22 1 32 -1 23 -4z"/>
<path d="M700 2716 c0 -2 7 -7 16 -10 8 -3 12 -2 9 4 -6 10 -25 14 -25 6z"/>
<path d="M1282 2703 c-23 -8 -40 -19 -37 -24 3 -4 13 -5 22 -2 9 4 14 2 11 -3
-4 -5 9 -10 28 -12 61 -4 222 -58 210 -69 -3 -4 -12 -1 -18 5 -15 15 -48 15
-68 1 -13 -9 -12 -10 3 -5 10 3 26 -3 37 -14 11 -11 32 -20 48 -20 15 0 36 -7
46 -15 10 -8 23 -12 27 -9 5 3 9 0 9 -5 0 -6 5 -11 11 -11 6 0 18 -7 26 -16
10 -9 25 -13 38 -10 19 5 22 2 18 -13 -3 -13 4 -21 26 -31 18 -7 36 -20 40
-29 18 -31 24 0 11 54 -12 49 -17 57 -52 72 -38 17 -49 37 -25 46 7 3 5 6 -6
6 -16 1 -75 36 -87 53 -3 4 -32 19 -63 34 -73 33 -190 41 -255 17z m281 -110
c-7 -2 -19 -2 -25 0 -7 3 -2 5 12 5 14 0 19 -2 13 -5z m50 -10 c-7 -2 -19 -2
-25 0 -7 3 -2 5 12 5 14 0 19 -2 13 -5z"/>
<path d="M808 2703 c7 -3 16 -2 19 1 4 3 -2 6 -13 5 -11 0 -14 -3 -6 -6z"/>
<path d="M946 2691 c-19 -7 -19 -8 2 -13 12 -4 20 -2 17 2 -3 5 1 11 7 13 7 3
9 5 3 6 -5 0 -19 -4 -29 -8z"/>
<path d="M1163 2673 c9 -2 23 -2 30 0 6 3 -1 5 -18 5 -16 0 -22 -2 -12 -5z"/>
<path d="M1130 2660 c8 -5 24 -10 34 -10 26 0 18 6 -19 14 -22 5 -26 4 -15 -4z"/>
<path d="M1254 2638 c-3 -4 2 -8 10 -8 8 0 17 4 20 8 3 5 -2 9 -10 9 -8 0 -17
-4 -20 -9z"/>
<path d="M1323 2643 c-13 -2 -23 -9 -23 -15 0 -6 10 -8 24 -4 14 3 28 2 31 -4
3 -5 23 -10 43 -9 l37 1 -35 8 c-19 5 -36 13 -38 19 -2 6 -7 10 -10 10 -4 -1
-17 -4 -29 -6z"/>
<path d="M1730 2583 c13 -3 30 -12 37 -21 11 -15 12 -15 13 6 0 19 -5 22 -37
21 -28 -1 -31 -3 -13 -6z"/>
<path d="M1220 2520 c8 -5 22 -9 30 -9 10 0 8 3 -5 9 -27 12 -43 12 -25 0z"/>
<path d="M1358 2483 c6 -2 18 -2 25 0 6 3 1 5 -13 5 -14 0 -19 -2 -12 -5z"/>
<path d="M1408 2473 c7 -3 16 -2 19 1 4 3 -2 6 -13 5 -11 0 -14 -3 -6 -6z"/>
<path d="M2668 2433 c-18 -3 -28 -12 -33 -30 -3 -14 -5 -26 -3 -28 2 -1 18 13
36 31 18 19 31 33 30 33 -2 -1 -15 -4 -30 -6z"/>
<path d="M2475 2410 c-3 -5 -2 -10 4 -10 5 0 13 5 16 10 3 6 2 10 -4 10 -5 0
-13 -4 -16 -10z"/>
<path d="M2546 2409 c-28 -8 -87 -59 -69 -59 4 0 3 -4 -3 -8 -12 -7 -138 -174
-192 -253 -17 -26 -40 -57 -51 -70 -11 -13 -38 -45 -60 -71 -22 -26 -45 -56
-53 -66 -28 -39 -33 -30 -33 61 0 106 -22 165 -75 211 -34 28 -61 36 -41 12
10 -12 9 -14 -6 -10 -11 3 -24 14 -30 24 -10 15 -8 20 15 28 15 6 39 13 55 16
30 7 35 21 11 30 -10 4 -13 2 -8 -6 13 -21 -76 -1 -102 23 -13 12 -35 23 -49
24 -26 1 -33 -9 -15 -20 6 -3 10 -17 10 -31 0 -33 -47 -223 -61 -247 -6 -11
-8 -21 -5 -24 3 -3 -1 -17 -8 -32 -18 -35 -29 -123 -30 -249 -1 -101 -1 -103
24 -109 17 -4 43 3 84 25 33 17 62 30 64 27 8 -8 -10 -47 -34 -70 -13 -13 -24
-27 -24 -30 0 -4 -12 -19 -27 -35 -16 -15 -62 -65 -103 -111 -110 -123 -282
-298 -289 -296 -14 5 -60 -42 -95 -98 -21 -33 -100 -138 -175 -234 -75 -96
-154 -197 -175 -225 -21 -28 -44 -54 -50 -58 -7 -5 -6 -15 3 -32 8 -13 11 -34
8 -45 -8 -31 0 -26 27 17 13 21 41 59 63 84 21 25 60 74 88 109 27 35 57 71
65 79 8 8 22 25 30 37 27 39 158 208 177 228 10 11 43 47 73 80 29 33 87 96
129 141 42 45 114 123 161 175 47 51 97 106 113 122 30 32 33 43 15 50 -10 4
-9 8 2 16 25 17 46 13 121 -25 39 -20 72 -34 75 -31 3 2 -12 12 -31 22 -20 9
-34 19 -31 23 9 8 -24 41 -37 38 -7 -2 -9 -1 -4 1 13 8 8 23 -8 23 -8 0 -15 7
-15 15 0 8 -5 15 -12 15 -6 0 -9 2 -7 5 10 9 73 -21 105 -50 18 -16 60 -45 93
-63 l61 -33 0 32 c0 46 -41 109 -99 149 -28 19 -51 39 -51 43 0 4 11 20 25 35
14 15 21 28 15 30 -6 2 -5 9 3 16 28 30 66 77 137 171 41 55 80 107 87 115 6
8 39 50 72 92 34 43 61 80 61 83 0 3 10 17 23 30 45 48 77 85 72 85 -3 0 9 13
26 28 25 23 28 28 12 29 -10 0 -31 -3 -47 -8z"/>
<path d="M1905 2323 c8 -18 18 -33 20 -33 10 0 4 16 -16 40 l-20 25 16 -32z"/>
<path d="M1800 2321 c0 -5 5 -13 10 -16 6 -3 10 -2 10 4 0 5 -4 13 -10 16 -5
3 -10 2 -10 -4z"/>
<path d="M985 2276 c-40 -10 -56 -20 -82 -55 -18 -23 -33 -51 -33 -62 0 -23
-15 -25 -24 -4 -8 23 -41 18 -75 -11 -30 -25 -43 -52 -18 -38 10 6 10 4 0 -7
-7 -7 -13 -22 -12 -33 0 -20 1 -20 8 -2 5 14 10 16 15 8 4 -7 12 -10 17 -7 5
4 9 2 9 -3 0 -14 69 -48 110 -56 19 -3 27 -2 17 2 -15 6 -16 10 -4 26 20 27
64 23 136 -13 33 -17 70 -31 81 -31 11 0 20 -4 20 -10 0 -5 6 -10 13 -10 6 -1
30 -9 52 -20 22 -11 48 -19 58 -20 16 0 17 2 3 15 -8 8 -20 15 -26 15 -16 0
-33 50 -31 92 1 26 -5 45 -18 59 -24 26 -33 69 -15 69 8 0 14 -7 14 -15 0 -8
4 -15 9 -15 16 0 59 -95 67 -145 7 -48 24 -45 24 3 0 42 25 19 44 -42 6 -18 7
-18 19 -2 15 20 44 13 52 -14 3 -10 15 -20 25 -23 12 -3 20 -14 20 -25 0 -11
14 -32 30 -45 17 -14 30 -30 30 -36 0 -5 8 -12 18 -15 9 -3 25 -19 34 -36 9
-16 22 -30 28 -30 16 0 12 30 -5 36 -22 9 -18 34 5 34 14 0 21 9 26 35 14 76
-31 169 -130 273 -66 68 -115 96 -211 121 -111 29 -147 27 -113 -7 9 -9 8 -12
-6 -12 -13 0 -17 -5 -13 -20 3 -12 0 -20 -6 -20 -13 0 -67 72 -67 89 0 6 -4
11 -9 11 -5 0 -15 2 -23 4 -7 2 -35 -2 -63 -8z m141 -189 c1 -18 5 -42 9 -54
5 -17 3 -23 -8 -23 -18 0 -30 32 -29 72 1 57 26 61 28 5z m-81 -28 c11 -17 2
-18 -19 -3 -17 12 -17 14 -4 14 9 0 20 -5 23 -11z m155 -49 c0 -13 -7 -20 -19
-20 -22 0 -35 15 -26 30 12 19 45 11 45 -10z"/>
<path d="M1920 2270 c0 -5 5 -10 11 -10 5 0 7 5 4 10 -3 6 -8 10 -11 10 -2 0
-4 -4 -4 -10z"/>
<path d="M777 2009 c7 -7 15 -10 18 -7 3 3 -2 9 -12 12 -14 6 -15 5 -6 -5z"/>
<path d="M948 2013 c7 -3 16 -2 19 1 4 3 -2 6 -13 5 -11 0 -14 -3 -6 -6z"/>
<path d="M1347 1904 c-8 -8 22 -33 41 -34 6 0 12 5 12 10 0 6 -9 10 -19 10
-11 0 -21 5 -23 11 -2 5 -7 7 -11 3z"/>
<path d="M1450 1840 c19 -11 40 -19 45 -19 6 0 -6 8 -25 19 -19 11 -39 19 -45
19 -5 0 6 -8 25 -19z"/>
<path d="M2523 1833 c15 -2 39 -2 55 0 15 2 2 4 -28 4 -30 0 -43 -2 -27 -4z"/>
<path d="M2648 1833 c7 -3 16 -2 19 1 4 3 -2 6 -13 5 -11 0 -14 -3 -6 -6z"/>
<path d="M2691 1826 c12 -10 60 -16 54 -6 -3 5 -18 10 -32 10 -15 0 -24 -2
-22 -4z"/>
<path d="M2443 1726 c-33 -18 -143 -145 -159 -183 -8 -18 -14 -42 -14 -53 0
-12 -10 -25 -25 -32 l-25 -11 23 -26 c31 -33 62 -81 52 -81 -4 0 -20 10 -37
21 -28 20 -35 21 -98 10 -118 -19 -241 -109 -329 -240 -58 -87 -65 -110 -57
-201 5 -49 3 -86 -3 -98 -9 -17 -7 -21 22 -26 17 -3 75 -7 127 -7 91 -1 154
11 212 42 11 6 36 13 56 15 38 5 82 28 82 43 0 4 11 6 25 3 15 -2 25 0 25 7 0
6 6 11 13 11 28 0 120 130 110 156 -6 16 29 27 38 12 4 -7 9 2 11 23 3 38 -26
109 -45 109 -7 0 -5 5 5 10 18 11 78 2 78 -11 0 -5 6 -9 13 -9 6 0 29 -16 50
-35 21 -19 40 -35 43 -35 3 0 2 20 -1 44 -3 25 -2 52 1 61 6 14 8 14 20 -2 13
-16 14 -15 8 10 -4 17 -2 27 6 27 7 0 9 8 5 19 -3 11 1 36 10 56 19 46 19 50
-1 69 -17 18 -124 23 -124 6 0 -5 -11 -10 -23 -10 -14 0 -42 -17 -67 -40 -41
-38 -42 -41 -38 -85 5 -38 2 -48 -16 -60 -19 -14 -21 -13 -28 2 -6 17 -7 17
-7 1 -1 -10 -5 -18 -11 -18 -6 0 -9 3 -9 8 4 25 -4 40 -23 45 -16 5 -19 9 -10
19 7 9 8 19 2 28 -7 10 -10 11 -10 3 0 -7 -8 -13 -17 -13 -16 0 -16 1 -1 16
15 16 14 21 -17 67 -37 55 -37 67 1 67 13 0 24 6 24 13 0 13 85 37 133 37 15
0 27 6 27 13 0 29 22 36 46 14 14 -12 48 -31 76 -43 29 -12 54 -27 56 -33 2
-6 8 -8 14 -5 6 4 13 2 17 -4 9 -15 13 85 5 121 -3 16 -17 33 -34 42 -16 8
-34 31 -44 54 -25 63 -103 90 -163 57z m227 -221 c0 -8 -7 -15 -15 -15 -8 0
-15 7 -15 15 0 8 7 15 15 15 8 0 15 -7 15 -15z m-204 -253 c-8 -8 -12 -1 -20
33 l-6 30 16 -28 c8 -16 13 -31 10 -35z m29 8 c3 -5 1 -10 -4 -10 -6 0 -11 5
-11 10 0 6 2 10 4 10 3 0 8 -4 11 -10z m-92 -60 c-20 -23 -33 -26 -33 -6 0 13
13 20 42 25 4 0 0 -8 -9 -19z m-86 -36 c-3 -3 -12 -4 -19 -1 -8 3 -5 6 6 6 11
1 17 -2 13 -5z"/>
<path d="M2890 1733 c0 -5 6 -15 13 -22 10 -11 9 -13 -3 -9 -8 3 -24 1 -35 -4
-19 -8 -19 -8 1 -5 12 3 29 0 38 -5 12 -7 16 -5 16 10 0 11 -7 25 -15 32 -8 7
-15 8 -15 3z"/>
<path d="M1168 1713 c6 -2 18 -2 25 0 6 3 1 5 -13 5 -14 0 -19 -2 -12 -5z"/>
<path d="M1098 1703 c7 -3 16 -2 19 1 4 3 -2 6 -13 5 -11 0 -14 -3 -6 -6z"/>
<path d="M1017 1683 c-15 -8 -25 -19 -22 -24 7 -11 45 7 45 21 0 5 10 11 23
13 18 4 18 4 2 5 -11 0 -32 -7 -48 -15z"/>
<path d="M1580 1689 c0 -5 5 -7 10 -4 6 3 10 8 10 11 0 2 -4 4 -10 4 -5 0 -10
-5 -10 -11z"/>
<path d="M1142 1661 c7 -11 16 -17 20 -14 10 5 -10 33 -23 33 -5 0 -4 -9 3
-19z"/>
<path d="M1393 1673 c15 -4 22 -16 15 -27 -2 -2 5 -13 15 -24 11 -12 16 -25
13 -30 -3 -5 16 -18 42 -30 27 -12 58 -31 70 -42 37 -34 37 0 1 68 -28 54 -37
63 -77 76 -25 9 -57 15 -71 15 -17 -1 -20 -3 -8 -6z"/>
<path d="M1040 1660 c0 -5 -11 -12 -25 -16 -14 -3 -25 -11 -25 -16 0 -6 7 -8
15 -4 9 3 15 0 15 -10 0 -12 6 -15 25 -10 21 5 25 3 25 -14 0 -17 -4 -20 -21
-15 -12 4 -39 8 -60 9 -45 2 -52 7 -43 30 5 14 9 15 15 5 4 -8 10 -11 13 -8 3
2 1 11 -3 18 -6 10 -19 12 -45 7 -59 -11 -116 -105 -92 -151 21 -38 41 -60 71
-75 17 -8 37 -23 45 -33 26 -31 266 -79 307 -62 10 4 31 9 48 10 16 2 31 8 33
14 2 6 10 11 18 11 10 0 12 5 8 13 -6 9 -3 8 8 -1 18 -14 40 -7 86 29 l23 18
-23 3 c-14 2 -24 12 -28 28 -5 22 -11 25 -40 22 -27 -2 -32 0 -20 8 11 8 2 10
-40 9 -76 -1 -82 0 -75 11 4 6 -6 10 -22 11 -15 1 -39 5 -53 9 -15 5 39 8 137
7 154 -2 181 3 102 17 -20 4 -52 20 -70 37 -19 16 -53 39 -77 51 -23 11 -45
24 -48 29 -7 12 -24 12 -24 0 0 -5 20 -18 44 -30 44 -20 80 -53 40 -36 -33 13
-136 36 -148 32 -6 -2 -17 3 -24 10 -8 8 -23 11 -33 8 -11 -4 -19 -2 -19 4 0
6 6 11 14 11 8 0 18 5 21 10 4 6 -7 10 -24 10 -17 0 -31 -4 -31 -10z m275
-200 c18 -8 17 -9 -7 -9 -16 -1 -28 4 -28 9 0 12 8 12 35 0z"/>
<path d="M1405 1600 c3 -5 8 -10 11 -10 2 0 4 5 4 10 0 6 -5 10 -11 10 -5 0
-7 -4 -4 -10z"/>
<path d="M2473 1501 c-9 -15 -9 -22 0 -29 9 -8 12 -3 13 19 1 34 2 34 -13 10z"/>
<path d="M2370 1475 c0 -10 41 -25 52 -19 8 5 5 10 -8 15 -22 9 -44 11 -44 4z"/>
<path d="M2328 1463 c7 -3 16 -2 19 1 4 3 -2 6 -13 5 -11 0 -14 -3 -6 -6z"/>
<path d="M1440 1430 c0 -5 5 -10 11 -10 5 0 7 5 4 10 -3 6 -8 10 -11 10 -2 0
-4 -4 -4 -10z"/>
<path d="M2701 1352 c-6 -12 -11 -29 -10 -39 0 -11 6 -6 15 16 16 37 12 55 -5
23z"/>
<path d="M2652 1190 c0 -19 2 -27 5 -17 2 9 2 25 0 35 -3 9 -5 1 -5 -18z"/>
<path d="M2556 1105 c-8 -23 -9 -22 22 -28 57 -11 75 -17 91 -31 9 -9 29 -27
44 -40 25 -21 26 -25 10 -29 -14 -4 -13 -5 5 -6 27 -1 30 24 5 51 -9 10 -11
18 -5 18 6 0 23 -16 38 -35 24 -31 27 -45 27 -108 -1 -61 3 -79 26 -114 14
-24 29 -43 32 -43 9 0 56 -108 64 -145 l6 -30 -15 25 c-10 17 -16 20 -17 10
-1 -8 -4 -2 -8 13 l-6 28 -23 -22 c-29 -26 -24 -70 14 -126 13 -20 24 -40 24
-46 0 -5 7 -15 16 -22 14 -10 14 -15 4 -34 -11 -21 -10 -22 9 -16 16 5 22 1
27 -21 4 -15 18 -44 31 -63 30 -44 38 -52 28 -26 -4 11 -14 55 -21 98 -8 43
-22 93 -31 110 -13 25 -16 55 -15 134 3 119 -32 289 -74 360 -40 69 -74 89
-239 140 -47 14 -63 14 -69 -2z m424 -775 c0 -5 -4 -10 -10 -10 -5 0 -10 5
-10 10 0 6 5 10 10 10 6 0 10 -4 10 -10z"/>
<path d="M2630 976 c0 -14 63 -127 67 -122 3 3 -9 31 -27 63 -34 62 -40 71
-40 59z"/>
<path d="M2720 791 c0 -5 5 -13 10 -16 6 -3 10 -2 10 4 0 5 -4 13 -10 16 -5 3
-10 2 -10 -4z"/>
<path d="M2747 729 c4 -13 8 -18 11 -10 2 7 -1 18 -6 23 -8 8 -9 4 -5 -13z"/>
<path d="M910 439 c0 -5 -4 -7 -10 -4 -6 3 -10 -4 -10 -17 0 -18 -2 -20 -10
-8 -8 12 -10 9 -10 -12 0 -25 -74 -152 -152 -262 -30 -41 -27 -55 14 -77 15
-8 21 -4 35 26 9 19 21 35 26 35 5 0 7 7 3 15 -3 8 -2 15 3 15 5 0 35 43 66
95 49 81 58 103 60 150 2 30 -1 55 -6 55 -5 0 -9 -5 -9 -11z"/>
<path d="M3011 224 c0 -11 3 -14 6 -6 3 7 2 16 -1 19 -3 4 -6 -2 -5 -13z"/>
<path d="M3026 165 c4 -8 8 -15 10 -15 2 0 4 7 4 15 0 8 -4 15 -10 15 -5 0 -7
-7 -4 -15z"/>
</g>
</svg>
