<?xml version="1.0" standalone="no"?>
<!DOCTYPE svg PUBLIC "-//W3C//DTD SVG 20010904//EN"
 "http://www.w3.org/TR/2001/REC-SVG-20010904/DTD/svg10.dtd">
<svg version="1.0" xmlns="http://www.w3.org/2000/svg"
 width="360.000000pt" height="360.000000pt" viewBox="0 0 360.000000 360.000000"
 preserveAspectRatio="xMidYMid meet">

<g transform="translate(0.000000,360.000000) scale(0.100000,-0.100000)"
fill="#000000" stroke="none">
<path d="M2365 2998 c11 -6 26 -18 33 -26 9 -12 12 -12 12 -3 0 17 -30 40 -50
40 -10 0 -9 -3 5 -11z"/>
<path d="M2328 2950 c12 -12 28 -20 35 -17 7 2 -4 12 -23 22 l-35 17 23 -22z"/>
<path d="M2378 2951 c15 -13 18 -21 10 -24 -7 -2 -10 -7 -6 -11 9 -11 58 -15
58 -5 0 5 -7 9 -15 9 -8 0 -15 4 -15 9 0 5 -12 16 -27 25 l-28 17 23 -20z"/>
<path d="M2469 2940 c18 -16 27 -18 37 -9 17 14 18 29 3 29 -5 0 -7 -4 -4 -10
8 -13 3 -13 -32 0 l-28 10 24 -20z"/>
<path d="M2420 2946 c0 -2 7 -7 16 -10 8 -3 12 -2 9 4 -6 10 -25 14 -25 6z"/>
<path d="M2402 2873 c5 -6 16 -9 24 -6 23 8 16 21 -10 19 -18 -1 -22 -4 -14
-13z"/>
<path d="M2670 2720 c0 -5 9 -14 20 -20 16 -8 18 -8 14 4 -6 17 -34 30 -34 16z"/>
<path d="M2520 2690 c0 -6 7 -10 15 -10 8 0 15 2 15 4 0 2 -7 6 -15 10 -8 3
-15 1 -15 -4z"/>
<path d="M2680 2673 c14 -10 28 -18 32 -18 3 0 10 -4 15 -9 8 -9 -28 -3 -61
10 -13 5 -12 -1 6 -29 13 -19 26 -33 30 -31 4 3 14 -6 22 -18 9 -12 19 -19 22
-15 4 4 13 2 21 -4 11 -9 13 -7 10 9 -2 12 -7 25 -12 29 -4 5 -5 2 -1 -4 10
-18 -15 -17 -40 1 -11 8 -15 18 -10 23 5 4 11 2 13 -4 3 -7 9 -13 15 -13 6 0
8 7 5 15 -4 8 -2 17 4 20 14 9 -19 38 -36 32 -7 -3 -19 1 -25 9 -7 8 -17 14
-23 14 -6 0 0 -8 13 -17z"/>
<path d="M2790 2671 c0 -5 5 -13 10 -16 6 -3 10 -2 10 4 0 5 -4 13 -10 16 -5
3 -10 2 -10 -4z"/>
<path d="M2560 2637 c0 -24 16 -29 31 -9 7 9 9 14 5 10 -5 -4 -15 -3 -23 3
-10 9 -13 8 -13 -4z"/>
<path d="M2650 2608 c0 -9 5 -20 11 -23 17 -11 18 -2 3 19 -12 17 -14 17 -14
4z"/>
<path d="M2610 2600 c0 -5 5 -10 10 -10 6 0 10 5 10 10 0 6 -4 10 -10 10 -5 0
-10 -4 -10 -10z"/>
<path d="M2620 2563 c1 -19 18 -33 32 -28 9 4 19 1 23 -4 8 -13 25 -5 25 12 0
8 -3 7 -9 -2 -7 -11 -12 -10 -22 8 -13 20 -49 30 -49 14z"/>
<path d="M2733 2535 c-7 -7 -9 -15 -4 -17 5 -2 18 -21 29 -43 17 -31 21 -35
22 -18 0 12 5 25 10 28 6 4 0 15 -15 27 -14 11 -23 24 -20 29 9 14 -9 10 -22
-6z"/>
<path d="M2705 2450 c3 -5 8 -10 11 -10 2 0 4 5 4 10 0 6 -5 10 -11 10 -5 0
-7 -4 -4 -10z"/>
<path d="M2715 2400 c3 -5 8 -10 11 -10 2 0 4 5 4 10 0 6 -5 10 -11 10 -5 0
-7 -4 -4 -10z"/>
<path d="M2741 2386 c-7 -8 -8 -17 -3 -20 6 -3 12 3 15 14 6 24 4 25 -12 6z"/>
<path d="M2586 2325 c4 -8 8 -15 10 -15 2 0 4 7 4 15 0 8 -4 15 -10 15 -5 0
-7 -7 -4 -15z"/>
<path d="M1600 2320 c0 -5 4 -10 9 -10 6 0 13 5 16 10 3 6 -1 10 -9 10 -9 0
-16 -4 -16 -10z"/>
<path d="M2797 2311 c-3 -13 -1 -18 9 -14 7 2 10 11 7 19 -7 19 -10 18 -16 -5z"/>
<path d="M2766 2274 c-8 -22 1 -31 16 -16 9 9 9 15 1 23 -7 7 -12 5 -17 -7z"/>
<path d="M2540 2240 c0 -5 5 -10 10 -10 6 0 10 5 10 10 0 6 -4 10 -10 10 -5 0
-10 -4 -10 -10z"/>
<path d="M2461 2177 c-6 -8 -8 -17 -4 -20 3 -4 0 -7 -8 -7 -8 0 -25 -8 -38
-17 l-24 -16 24 -10 c13 -6 26 -11 29 -11 3 -1 14 -7 25 -12 11 -6 42 -10 68
-8 35 2 46 0 41 -9 -4 -8 -2 -7 7 1 12 11 11 15 -4 27 -13 9 -15 14 -5 18 7 2
10 7 7 11 -10 10 -37 -4 -42 -22 -4 -13 -5 -11 -6 4 -1 17 -6 20 -26 16 -21
-4 -25 0 -26 19 -1 13 -1 30 0 37 2 16 -4 15 -18 -1z m7 -82 c-3 -3 -9 2 -12
12 -6 14 -5 15 5 6 7 -7 10 -15 7 -18z"/>
<path d="M2380 2165 c-7 -9 -10 -18 -7 -21 10 -11 37 5 37 21 0 19 -14 19 -30
0z"/>
<path d="M1410 2162 c0 -5 7 -13 16 -16 10 -4 14 -1 12 6 -5 15 -28 23 -28 10z"/>
<path d="M1750 2086 c0 -9 8 -14 20 -13 11 1 20 2 20 4 0 1 -9 7 -20 13 -16 8
-20 8 -20 -4z"/>
<path d="M2615 2090 c3 -6 -1 -13 -9 -16 -9 -3 -16 -13 -16 -21 0 -8 -5 -11
-11 -7 -8 4 -9 -3 -4 -27 10 -45 45 -80 45 -44 0 8 -5 15 -12 15 -6 0 -8 3 -5
7 4 3 15 -2 26 -11 30 -27 57 -5 53 42 -3 31 -10 40 -39 55 -19 9 -32 13 -28
7z m21 -29 c-3 -4 4 -18 15 -30 27 -29 17 -38 -22 -19 -18 9 -27 18 -20 22 6
4 11 16 11 27 0 11 5 17 10 14 6 -4 8 -10 6 -14z"/>
<path d="M2625 2030 c3 -5 8 -10 11 -10 2 0 4 5 4 10 0 6 -5 10 -11 10 -5 0
-7 -4 -4 -10z"/>
<path d="M1790 2037 c0 -8 7 -17 15 -21 8 -3 15 -2 15 3 0 5 -7 14 -15 21 -12
10 -15 10 -15 -3z"/>
<path d="M2490 2041 c0 -5 5 -13 10 -16 6 -3 10 -2 10 4 0 5 -4 13 -10 16 -5
3 -10 2 -10 -4z"/>
<path d="M1719 2013 c-13 -15 -12 -15 9 -4 23 12 28 21 13 21 -5 0 -15 -7 -22
-17z"/>
<path d="M965 1990 c-3 -5 -1 -10 4 -10 6 0 11 5 11 10 0 6 -2 10 -4 10 -3 0
-8 -4 -11 -10z"/>
<path d="M2528 1978 c4 -15 2 -19 -7 -13 -7 4 -5 -4 4 -19 18 -27 39 -34 50
-16 3 6 -1 17 -9 26 -9 8 -16 22 -16 30 0 8 -6 14 -14 14 -10 0 -12 -7 -8 -22z"/>
<path d="M1380 1980 c0 -5 4 -10 9 -10 6 0 13 5 16 10 3 6 -1 10 -9 10 -9 0
-16 -4 -16 -10z"/>
<path d="M1590 1986 c0 -2 7 -9 15 -16 9 -7 15 -8 15 -2 0 5 -7 12 -15 16 -8
3 -15 4 -15 2z"/>
<path d="M2030 1976 c-13 -16 -5 -40 11 -31 5 4 9 -5 9 -19 0 -14 4 -26 10
-26 13 0 9 68 -5 80 -9 7 -16 6 -25 -4z"/>
<path d="M2250 1981 c0 -5 7 -15 17 -22 15 -13 15 -12 4 9 -12 23 -21 28 -21
13z"/>
<path d="M2280 1986 c0 -2 8 -10 18 -17 15 -13 16 -12 3 4 -13 16 -21 21 -21
13z"/>
<path d="M2670 1970 c0 -5 5 -10 10 -10 6 0 10 5 10 10 0 6 -4 10 -10 10 -5 0
-10 -4 -10 -10z"/>
<path d="M965 1950 c-19 -8 -19 -9 2 -9 12 -1 25 4 28 9 7 12 -2 12 -30 0z"/>
<path d="M1320 1920 c0 -11 4 -20 9 -20 17 0 19 15 5 28 -12 11 -14 9 -14 -8z"/>
<path d="M2507 1934 c-4 -4 -7 -14 -7 -23 0 -11 3 -12 11 -4 6 6 10 16 7 23
-2 6 -7 8 -11 4z"/>
<path d="M2700 1929 c0 -5 9 -9 20 -9 11 0 20 2 20 4 0 2 -9 6 -20 9 -11 3
-20 1 -20 -4z"/>
<path d="M1361 1915 c-1 -6 4 -16 10 -22 8 -8 7 -11 -2 -10 -24 3 -119 -24
-120 -34 -1 -5 -2 -14 -3 -19 0 -6 -7 -14 -14 -19 -8 -5 -15 -20 -15 -35 -1
-14 -6 -26 -12 -26 -5 0 -4 -4 4 -9 7 -5 10 -14 6 -21 -5 -8 -10 -9 -14 -1 -4
5 -8 -10 -9 -35 l-2 -45 24 18 c13 10 22 21 20 25 -2 3 0 18 5 31 7 18 7 27
-2 31 -9 3 -9 7 -1 13 6 4 14 15 17 23 4 12 6 11 6 -3 1 -10 6 -27 12 -38 10
-20 10 -20 28 2 15 19 19 20 32 6 13 -13 17 -12 37 3 12 10 22 22 22 27 0 10
40 36 47 30 2 -3 0 -15 -7 -26 -6 -12 -8 -21 -5 -21 3 0 15 19 25 43 l20 42 0
-31 c0 -34 27 -51 47 -29 8 9 5 16 -13 30 -13 9 -21 21 -18 26 3 5 0 9 -5 9
-6 0 -11 6 -11 14 0 9 -8 12 -26 8 -14 -2 -23 -10 -21 -16 3 -7 -4 -13 -14
-13 -16 -2 -17 2 -9 17 17 31 12 53 -10 47 -10 -3 -21 0 -24 7 -3 6 -5 7 -5 1z
m-78 -120 c-3 -9 -8 -14 -10 -11 -3 3 -2 9 2 15 9 16 15 13 8 -4z"/>
<path d="M1782 1907 c-8 -10 -6 -13 8 -14 13 -1 17 3 13 13 -6 17 -8 17 -21 1z"/>
<path d="M1900 1905 c0 -8 4 -15 10 -15 5 0 7 7 4 15 -4 8 -8 15 -10 15 -2 0
-4 -7 -4 -15z"/>
<path d="M1710 1895 c-7 -9 -8 -15 -2 -15 5 0 12 7 16 15 3 8 4 15 2 15 -2 0
-9 -7 -16 -15z"/>
<path d="M1746 1902 c-4 -7 -2 -51 3 -69 1 -2 9 5 19 15 21 19 19 34 -3 26
-10 -4 -12 0 -8 15 5 21 -1 28 -11 13z"/>
<path d="M2920 1880 c0 -5 5 -10 10 -10 6 0 10 5 10 10 0 6 -4 10 -10 10 -5 0
-10 -4 -10 -10z"/>
<path d="M1810 1855 c0 -8 5 -15 10 -15 6 0 10 7 10 15 0 8 -4 15 -10 15 -5 0
-10 -7 -10 -15z"/>
<path d="M1570 1850 c0 -5 5 -9 12 -7 7 1 13 -5 14 -13 4 -44 4 -44 16 -32 9
9 8 17 -2 37 -13 25 -40 35 -40 15z"/>
<path d="M1705 1850 c-3 -5 -1 -10 4 -10 6 0 11 5 11 10 0 6 -2 10 -4 10 -3 0
-8 -4 -11 -10z"/>
<path d="M2903 1833 c-19 -24 -20 -30 -7 -44 7 -8 14 -24 14 -34 0 -18 1 -18
16 1 13 16 15 16 10 2 -3 -10 -1 -18 4 -18 6 0 10 5 10 12 0 9 3 9 12 0 17
-17 38 -15 38 3 0 8 -4 15 -10 15 -5 0 -10 9 -10 19 0 29 -11 52 -21 45 -5 -3
-6 -10 -3 -16 4 -7 2 -8 -4 -4 -7 4 -12 16 -12 27 0 26 -11 24 -37 -8z"/>
<path d="M1110 1800 c-13 -8 -12 -10 3 -10 9 0 17 5 17 10 0 12 -1 12 -20 0z"/>
<path d="M1727 1803 c-7 -11 10 -40 18 -31 4 4 3 14 -3 24 -5 9 -12 12 -15 7z"/>
<path d="M1960 1801 c0 -5 5 -13 10 -16 6 -3 10 -2 10 4 0 5 -4 13 -10 16 -5
3 -10 2 -10 -4z"/>
<path d="M2003 1786 c2 -18 -2 -21 -30 -18 -34 3 -42 -8 -20 -26 10 -9 19 -7
35 4 12 8 22 12 22 8 0 -3 6 -1 13 5 8 6 17 8 20 4 4 -3 7 0 7 8 0 8 -11 19
-25 25 -22 11 -24 10 -22 -10z"/>
<path d="M1560 1779 c0 -12 5 -16 15 -13 8 4 15 12 15 18 0 7 -7 13 -15 13 -8
0 -15 -8 -15 -18z"/>
<path d="M1076 1781 c-4 -7 -5 -15 -2 -18 9 -9 19 4 14 18 -4 11 -6 11 -12 0z"/>
<path d="M1764 1759 c-3 -5 1 -9 10 -9 8 0 16 -6 19 -12 3 -9 8 -10 15 -3 8 7
4 14 -13 22 -15 6 -27 7 -31 2z"/>
<path d="M2852 1738 c4 -41 21 -40 29 1 5 26 3 31 -13 31 -16 0 -19 -6 -16
-32z"/>
<path d="M1082 1725 c0 -16 2 -22 5 -12 2 9 2 23 0 30 -3 6 -5 -1 -5 -18z"/>
<path d="M1355 1688 c4 -18 0 -35 -10 -44 -8 -9 -15 -21 -15 -27 0 -7 4 -6 10
3 6 9 10 11 10 3 0 -7 7 -10 17 -6 12 5 14 3 8 -8 -6 -11 -5 -12 5 -2 9 8 19
9 32 2 12 -7 18 -6 18 2 0 6 7 9 14 6 10 -4 13 -1 9 8 -3 8 -8 13 -13 10 -4
-2 -5 8 -3 23 3 15 1 23 -4 17 -10 -13 -43 -16 -43 -4 0 5 4 9 10 9 20 0 -2
28 -26 33 -22 4 -23 1 -19 -25z"/>
<path d="M1949 1707 c-20 -15 -35 -57 -20 -57 6 0 11 9 11 20 0 13 7 20 20 20
11 0 20 4 20 9 0 16 -14 20 -31 8z"/>
<path d="M1620 1681 c13 -11 28 -17 33 -14 13 8 -14 33 -37 33 -20 0 -20 -1 4
-19z"/>
<path d="M1765 1680 c-3 -6 1 -13 10 -16 19 -8 30 0 20 15 -8 14 -22 14 -30 1z"/>
<path d="M1880 1680 c-17 -11 -8 -23 14 -18 9 2 12 8 8 15 -5 8 -13 9 -22 3z"/>
<path d="M1580 1675 c0 -3 7 -14 16 -23 15 -14 16 -14 13 3 -4 17 -29 35 -29
20z"/>
<path d="M1735 1670 c-3 -5 -1 -10 4 -10 6 0 11 5 11 10 0 6 -2 10 -4 10 -3 0
-8 -4 -11 -10z"/>
<path d="M1240 1641 c0 -11 5 -23 10 -26 6 -3 10 3 10 14 0 11 -4 23 -10 26
-5 3 -10 -3 -10 -14z"/>
<path d="M1953 1631 c3 -20 35 -56 43 -49 2 3 -1 19 -7 36 -12 34 -41 45 -36
13z"/>
<path d="M1506 1631 c-3 -5 1 -11 9 -15 9 -3 15 0 15 9 0 16 -16 20 -24 6z"/>
<path d="M2016 1623 c-4 -9 0 -23 9 -32 13 -14 15 -13 15 7 0 12 6 22 13 22 8
0 7 4 -3 10 -21 14 -27 12 -34 -7z"/>
<path d="M2580 1611 c-13 -25 -13 -44 0 -36 6 4 22 -5 36 -19 33 -32 61 -25
37 10 -8 13 -22 24 -29 24 -8 0 -14 9 -14 20 0 25 -16 26 -30 1z"/>
<path d="M2670 1624 c0 -7 27 -34 34 -34 3 0 6 9 6 20 0 13 -7 20 -20 20 -11
0 -20 -3 -20 -6z"/>
<path d="M1301 1583 c-1 -14 -7 -23 -16 -23 -18 0 -20 -26 -2 -33 17 -6 35 35
26 59 -7 17 -8 17 -8 -3z"/>
<path d="M1390 1586 c0 -18 16 -29 30 -21 13 8 1 35 -16 35 -8 0 -14 -6 -14
-14z"/>
<path d="M1450 1589 c0 -5 4 -9 9 -9 5 0 12 -10 14 -22 4 -23 4 -23 6 1 1 16
6 21 16 18 8 -4 17 -2 20 3 4 6 -2 10 -12 11 -10 0 -26 2 -35 4 -10 2 -18 -1
-18 -6z"/>
<path d="M1530 1580 c0 -5 5 -10 10 -10 6 0 10 5 10 10 0 6 -4 10 -10 10 -5 0
-10 -4 -10 -10z"/>
<path d="M1865 1560 c-3 -5 1 -10 10 -10 9 0 13 5 10 10 -3 6 -8 10 -10 10 -2
0 -7 -4 -10 -10z"/>
<path d="M2035 1563 c-11 -3 -23 -10 -26 -15 -4 -7 -15 -6 -29 2 -18 10 -25 9
-38 -4 -11 -10 -12 -16 -4 -16 7 0 12 -6 12 -14 0 -7 7 -19 15 -26 8 -7 14
-20 13 -29 -2 -10 6 -17 22 -19 21 -3 22 -2 11 12 -12 14 -10 16 8 16 12 0 19
5 16 10 -3 6 1 10 9 10 9 0 16 5 16 11 0 5 -6 7 -12 3 -7 -5 -3 5 10 20 12 16
19 32 16 37 -5 10 -7 10 -39 2z"/>
<path d="M1899 1555 c0 -5 -3 -19 -5 -30 -3 -11 -5 -28 -5 -39 0 -16 -5 -18
-40 -12 -24 4 -39 2 -39 -4 0 -5 6 -10 14 -10 8 0 26 -14 41 -32 15 -17 26
-25 24 -17 -1 8 0 21 4 29 15 41 23 99 16 112 -5 7 -9 9 -10 3z"/>
<path d="M1060 1538 c0 -8 7 -21 15 -28 19 -16 19 -1 0 24 -12 16 -15 17 -15
4z"/>
<path d="M1830 1536 c0 -8 5 -18 10 -21 6 -3 10 3 10 14 0 12 -4 21 -10 21 -5
0 -10 -6 -10 -14z"/>
<path d="M2508 1532 c0 -9 -1 -24 0 -32 0 -8 -3 -17 -8 -20 -5 -3 -5 -12 0
-20 8 -12 12 -8 22 18 7 17 16 32 20 32 12 0 -2 28 -18 34 -8 3 -15 -1 -16
-12z"/>
<path d="M1205 1521 c-3 -6 -10 -9 -15 -6 -14 9 -40 -6 -40 -24 0 -14 2 -14
10 -1 9 13 14 7 11 -12 -2 -17 24 -1 36 21 13 24 11 43 -2 22z"/>
<path d="M1330 1518 c0 -9 6 -19 13 -21 9 -4 9 -8 -2 -15 -17 -12 0 -24 19
-12 7 4 20 6 28 2 10 -3 13 0 10 9 -3 8 -13 16 -24 17 -10 2 -25 11 -31 20
-12 15 -13 15 -13 0z"/>
<path d="M1003 1507 c3 -9 2 -19 -3 -22 -17 -11 -11 -25 11 -25 16 0 20 5 17
27 -2 14 -9 29 -17 31 -10 3 -12 0 -8 -11z"/>
<path d="M696 1497 c3 -10 9 -15 12 -12 3 3 0 11 -7 18 -10 9 -11 8 -5 -6z"/>
<path d="M958 1503 c-24 -6 -23 -23 0 -23 10 0 19 7 19 15 0 8 -1 14 -1 14 -1
-1 -9 -3 -18 -6z"/>
<path d="M1750 1489 c0 -5 5 -7 10 -4 6 3 10 8 10 11 0 2 -4 4 -10 4 -5 0 -10
-5 -10 -11z"/>
<path d="M1590 1480 c-8 -5 -18 -6 -22 -4 -4 3 -8 1 -8 -4 0 -14 21 -20 49
-13 20 5 21 8 9 18 -8 7 -19 8 -28 3z"/>
<path d="M1431 1471 c-10 -6 -10 -10 -1 -16 13 -8 24 -1 19 14 -3 6 -10 7 -18
2z"/>
<path d="M1730 1459 c0 -5 5 -7 10 -4 6 3 10 8 10 11 0 2 -4 4 -10 4 -5 0 -10
-5 -10 -11z"/>
<path d="M1195 1446 c-26 -19 -13 -46 22 -43 21 1 31 -4 38 -20 5 -13 18 -23
28 -23 16 0 17 2 1 31 -8 17 -14 40 -11 50 3 11 1 19 -4 19 -5 0 -9 -4 -9 -10
0 -5 -9 -10 -21 -10 -13 0 -18 -4 -13 -12 4 -7 3 -8 -4 -4 -6 4 -9 13 -5 21 6
19 2 19 -22 1z"/>
<path d="M1920 1453 c0 -15 23 -43 35 -43 24 0 17 24 -10 37 -14 6 -25 9 -25
6z"/>
<path d="M1490 1441 c0 -6 4 -13 10 -16 6 -3 7 1 4 9 -7 18 -14 21 -14 7z"/>
<path d="M1310 1436 c0 -2 7 -6 15 -10 8 -3 15 -1 15 4 0 6 -7 10 -15 10 -8 0
-15 -2 -15 -4z"/>
<path d="M1785 1431 c-3 -6 1 -11 9 -11 9 0 16 -4 16 -10 0 -5 -5 -10 -10 -10
-6 0 -6 -7 1 -19 12 -18 43 -18 55 0 8 14 -5 46 -19 46 -6 0 -19 4 -28 7 -10
4 -20 3 -24 -3z"/>
<path d="M1418 1423 c-10 -2 -18 -9 -18 -14 0 -14 16 -11 30 6 7 8 11 14 9 14
-2 -1 -12 -3 -21 -6z"/>
<path d="M1737 1423 c-4 -3 -7 -11 -7 -17 0 -6 5 -5 12 2 6 6 9 14 7 17 -3 3
-9 2 -12 -2z"/>
<path d="M570 1399 c0 -5 5 -7 10 -4 6 3 10 8 10 11 0 2 -4 4 -10 4 -5 0 -10
-5 -10 -11z"/>
<path d="M1320 1388 c0 -19 2 -20 10 -8 13 19 13 30 0 30 -5 0 -10 -10 -10
-22z"/>
<path d="M2400 1395 c-7 -8 -18 -15 -24 -14 -34 4 -42 -2 -42 -35 l0 -34 25
19 c25 20 41 18 24 -3 -6 -7 -10 -27 -10 -45 l0 -31 18 21 c10 12 19 18 19 12
1 -11 30 53 30 65 0 5 -12 10 -27 12 l-28 3 23 23 c12 12 18 22 13 22 -5 0
-14 -7 -21 -15z"/>
<path d="M1155 1379 c-10 -15 3 -25 16 -12 7 7 7 13 1 17 -6 3 -14 1 -17 -5z"/>
<path d="M1190 1370 c0 -5 5 -10 10 -10 6 0 10 5 10 10 0 6 -4 10 -10 10 -5 0
-10 -4 -10 -10z"/>
<path d="M1680 1332 c0 -7 4 -11 9 -8 5 3 11 -3 14 -14 3 -11 10 -20 17 -20 6
0 9 4 5 9 -3 5 2 17 11 25 16 17 14 18 -28 20 -17 1 -28 -3 -28 -12z"/>
<path d="M1210 1315 c0 -7 5 -17 11 -21 8 -4 7 -9 -2 -15 -7 -4 -10 -11 -6
-16 5 -4 12 -2 16 5 4 7 18 11 30 10 30 -4 53 28 31 42 -26 16 -43 12 -37 -10
3 -13 0 -20 -10 -20 -9 0 -13 6 -10 14 3 8 -1 17 -9 20 -8 3 -14 -1 -14 -9z"/>
<path d="M1760 1304 c0 -8 5 -12 10 -9 6 3 10 10 10 16 0 5 -4 9 -10 9 -5 0
-10 -7 -10 -16z"/>
<path d="M1881 1313 c-1 -7 -4 -12 -8 -12 -43 7 -72 -14 -35 -23 23 -6 56 16
49 34 -4 10 -6 10 -6 1z"/>
<path d="M1180 1291 c0 -11 5 -23 10 -26 6 -3 10 3 10 14 0 11 -4 23 -10 26
-5 3 -10 -3 -10 -14z"/>
<path d="M1317 1256 c20 -26 27 -28 17 -3 -3 8 -12 18 -20 21 -11 4 -10 0 3
-18z"/>
<path d="M1935 1270 c3 -5 8 -10 11 -10 2 0 4 5 4 10 0 6 -5 10 -11 10 -5 0
-7 -4 -4 -10z"/>
<path d="M2330 1251 c0 -5 5 -13 10 -16 6 -3 10 -2 10 4 0 5 -4 13 -10 16 -5
3 -10 2 -10 -4z"/>
<path d="M1235 1221 c-3 -5 -1 -12 4 -15 12 -8 41 3 41 15 0 12 -37 12 -45 0z"/>
<path d="M2292 1210 c0 -14 2 -19 5 -12 2 6 2 18 0 25 -3 6 -5 1 -5 -13z"/>
<path d="M2282 1120 c9 -15 20 -20 37 -17 25 5 25 5 4 -12 -27 -22 -35 -48
-17 -55 8 -3 13 -11 12 -17 -2 -6 3 -14 10 -16 6 -3 12 2 12 11 0 9 3 15 8 14
17 -3 43 16 57 45 8 16 13 32 11 35 -7 7 -46 -9 -46 -19 0 -5 -4 -9 -10 -9 -5
0 -9 10 -7 21 2 18 -4 22 -28 24 -17 1 -37 5 -44 9 -10 6 -10 3 1 -14z"/>
<path d="M1160 1011 c0 -9 60 -34 66 -28 2 2 -12 11 -31 20 -19 9 -35 13 -35
8z"/>
<path d="M2350 1000 c0 -5 5 -10 10 -10 6 0 10 5 10 10 0 6 -4 10 -10 10 -5 0
-10 -4 -10 -10z"/>
<path d="M1078 980 c2 -8 7 -23 9 -32 3 -10 9 -16 13 -13 5 3 11 1 15 -5 3 -5
1 -10 -5 -10 -28 0 0 -25 29 -26 20 -1 38 -10 46 -22 8 -11 25 -22 37 -24 20
-4 23 0 23 26 0 18 -8 37 -19 45 -13 10 -15 15 -5 21 7 5 2 7 -14 7 -21 -2
-27 -7 -27 -25 0 -28 -22 -25 -26 3 -2 11 -7 21 -12 23 -6 2 -8 12 -5 23 4 15
2 18 -11 13 -9 -3 -13 -11 -10 -16 4 -6 -2 -6 -14 1 -11 6 -22 14 -24 18 -3 5
-3 1 0 -7z"/>
<path d="M1245 980 c-4 -7 3 -8 22 -4 38 9 42 14 10 14 -14 0 -29 -5 -32 -10z"/>
<path d="M1340 982 c0 -4 9 -8 19 -8 11 0 17 4 15 8 -7 10 -34 10 -34 0z"/>
<path d="M2328 973 c7 -3 16 -2 19 1 4 3 -2 6 -13 5 -11 0 -14 -3 -6 -6z"/>
<path d="M1725 951 c-3 -5 -1 -12 4 -15 5 -3 11 1 15 9 6 16 -9 21 -19 6z"/>
<path d="M2711 901 c-1 -23 0 -24 19 -6 11 10 18 21 15 24 -4 3 -10 -1 -14 -8
-7 -11 -10 -11 -14 0 -3 8 -6 3 -6 -10z"/>
<path d="M1075 900 c3 -5 8 -10 11 -10 2 0 4 5 4 10 0 6 -5 10 -11 10 -5 0 -7
-4 -4 -10z"/>
<path d="M2411 868 c-25 -26 -34 -30 -40 -19 -11 17 -39 8 -48 -16 -11 -28
-29 -43 -53 -43 -12 0 -18 -4 -15 -10 3 -5 16 -10 28 -10 17 0 19 -2 7 -10 -8
-5 -19 -5 -25 0 -6 5 -24 10 -40 12 -17 2 -35 9 -41 17 -8 10 -13 11 -18 3 -4
-7 -2 -12 3 -12 6 0 11 -4 11 -10 0 -5 -13 -7 -30 -4 -18 4 -43 0 -64 -10 -19
-9 -38 -16 -43 -15 -15 4 -43 -13 -37 -22 3 -5 9 -7 13 -5 4 3 6 -13 4 -34 -3
-26 0 -40 8 -40 7 0 9 -9 6 -22 -3 -12 -2 -29 3 -38 15 -27 -2 -41 -38 -31
-28 8 -32 7 -32 -10 0 -15 -7 -19 -34 -19 -32 0 -53 -20 -41 -40 11 -18 -68
-27 -90 -10 -15 12 -125 20 -125 10 0 -6 -11 -9 -25 -8 -14 1 -25 6 -25 10 0
4 -5 8 -11 8 -6 0 -9 -9 -6 -20 3 -12 0 -20 -8 -20 -7 0 -16 -7 -19 -15 -5
-13 2 -15 42 -13 26 2 52 7 58 11 7 4 15 0 18 -9 11 -28 254 -14 371 20 49 15
93 33 98 41 4 8 17 15 27 15 11 0 24 9 30 20 6 11 18 20 28 21 9 0 -3 9 -28
20 -34 16 -41 22 -30 29 13 8 13 10 -1 10 -9 0 -19 -9 -22 -20 -4 -16 0 -20
19 -20 15 0 22 -5 18 -13 -7 -18 -44 -19 -61 -1 -10 10 -25 13 -48 8 -30 -5
-33 -4 -28 14 5 21 33 39 33 23 0 -10 42 -2 50 9 8 11 62 22 56 11 -8 -13 23
-43 36 -35 7 4 8 2 4 -4 -11 -19 19 -14 45 7 13 10 31 21 39 25 9 4 6 5 -7 2
-27 -5 -20 20 8 29 10 4 18 12 16 18 -1 7 5 13 13 13 8 1 21 2 28 3 8 1 12 12
10 29 -3 24 0 27 30 27 19 0 32 5 32 12 0 7 16 23 35 35 41 27 44 37 10 33
-14 -1 -38 -16 -54 -34 -27 -30 -51 -41 -51 -22 0 13 93 101 108 101 9 0 10 5
3 19 -6 10 -7 22 -3 26 4 4 -4 5 -18 2 -14 -4 -29 -7 -33 -7 -5 0 -5 -4 -2
-10 3 -5 -1 -10 -9 -10 -10 0 -13 6 -10 15 9 23 -1 18 -35 -17z m-266 -138
c-3 -5 -10 -10 -16 -10 -5 0 -9 5 -9 10 0 6 7 10 16 10 8 0 12 -4 9 -10z m113
-20 c-1 -33 -16 -28 -23 8 -2 14 1 22 10 22 9 0 13 -11 13 -30z m109 15 c0 -8
-4 -15 -9 -15 -10 0 -11 14 -1 23 9 10 10 9 10 -8z m-37 -9 c0 -2 -9 -6 -20
-9 -11 -3 -18 -1 -14 4 5 9 34 13 34 5z m-220 -16 c0 -5 -4 -10 -9 -10 -6 0
-13 5 -16 10 -3 6 1 10 9 10 9 0 16 -4 16 -10z m99 -18 c-38 -29 -91 -45 -101
-30 -6 10 -10 10 -17 -1 -11 -17 -51 -5 -51 16 0 12 8 13 38 9 22 -4 55 -1 82
8 63 20 77 19 49 -2z m76 -12 c-3 -5 -11 -10 -16 -10 -6 0 -7 5 -4 10 3 6 11
10 16 10 6 0 7 -4 4 -10z m7 -38 c-7 -2 -10 -7 -7 -12 3 -4 -1 -10 -9 -13 -8
-3 -13 1 -12 11 1 21 17 33 30 25 6 -4 5 -8 -2 -11z m-217 -32 c-3 -5 -11 -10
-16 -10 -6 0 -7 5 -4 10 3 6 11 10 16 10 6 0 7 -4 4 -10z m-112 -111 c-8 -8
-16 -8 -30 0 -16 9 -14 10 12 11 21 0 26 -3 18 -11z m142 -9 c-3 -5 -13 -10
-21 -10 -8 0 -12 5 -9 10 3 6 13 10 21 10 8 0 12 -4 9 -10z m-128 -24 c4 -4
-9 -6 -29 -4 -20 1 -35 5 -32 9 5 9 51 5 61 -5z m-301 -9 c4 -4 3 -7 -2 -8 -5
0 -19 -2 -31 -3 -14 -2 -19 2 -16 11 5 13 36 13 49 0z m104 3 c10 -6 5 -9 -18
-8 -18 1 -35 5 -38 10 -7 11 37 10 56 -2z m-27 -27 c-7 -2 -19 -2 -25 0 -7 3
-2 5 12 5 14 0 19 -2 13 -5z"/>
<path d="M2232 855 c-17 -19 -1 -19 24 0 14 11 15 14 4 14 -8 0 -21 -6 -28
-14z"/>
<path d="M2620 825 c-8 -9 -8 -15 -2 -15 12 0 26 19 19 26 -2 2 -10 -2 -17
-11z"/>
<path d="M1305 820 c3 -5 8 -10 11 -10 2 0 4 5 4 10 0 6 -5 10 -11 10 -5 0 -7
-4 -4 -10z"/>
<path d="M1670 820 c0 -5 7 -10 15 -10 8 0 15 -4 15 -10 0 -17 14 -11 28 10
11 19 10 20 -23 20 -19 0 -35 -4 -35 -10z"/>
<path d="M1345 809 c-6 -9 30 -40 38 -32 15 14 6 39 -14 39 -11 0 -22 -3 -24
-7z"/>
<path d="M1290 799 c0 -5 9 -9 20 -9 11 0 20 2 20 4 0 2 -9 6 -20 9 -11 3 -20
1 -20 -4z"/>
<path d="M1936 785 c4 -8 8 -15 10 -15 2 0 4 7 4 15 0 8 -4 15 -10 15 -5 0 -7
-7 -4 -15z"/>
<path d="M2015 781 c-3 -6 13 -9 37 -9 32 1 38 3 23 9 -28 11 -53 11 -60 0z"/>
<path d="M1397 766 c-9 -9 -20 -16 -24 -16 -14 2 -14 -18 0 -31 7 -8 12 -20 9
-27 -4 -14 17 -16 38 -2 10 6 11 10 3 10 -7 0 -13 9 -13 21 0 15 4 19 16 15
13 -5 14 -3 7 6 -6 7 -12 19 -15 27 -3 11 -7 10 -21 -3z"/>
<path d="M1750 768 c0 -16 21 -18 36 -4 14 14 13 16 -10 14 -14 -1 -26 -6 -26
-10z"/>
<path d="M1533 762 c-13 -8 -34 -78 -25 -86 3 -3 -9 -6 -25 -6 -17 0 -33 4
-35 8 -1 4 -14 3 -27 -4 l-25 -13 32 -29 c21 -20 28 -32 20 -35 -7 -3 7 -4 32
-3 25 1 55 7 66 14 18 10 28 8 58 -13 30 -20 41 -23 57 -15 23 13 40 5 32 -15
-3 -10 2 -15 16 -15 12 0 21 -4 21 -10 0 -5 -9 -10 -19 -10 -11 0 -23 5 -26
10 -11 17 -25 11 -25 -11 0 -19 4 -21 38 -15 20 3 43 7 50 8 15 2 16 18 1 18
-5 0 -7 5 -4 10 4 7 12 7 25 0 10 -5 21 -10 24 -10 10 0 6 39 -4 45 -19 12 0
26 20 15 27 -14 33 -12 53 15 l17 24 -57 -3 c-70 -4 -153 31 -153 64 0 10 -4
22 -10 25 -22 13 -9 24 18 15 24 -9 25 -9 9 4 -12 9 -36 13 -74 10 -31 -2 -59
0 -63 5 -3 6 -11 7 -17 3z m102 -32 c3 -5 1 -10 -4 -10 -6 0 -11 5 -11 10 0 6
2 10 4 10 3 0 8 -4 11 -10z m-13 -52 c-10 -10 -14 -10 -21 0 -5 8 -12 13 -17
12 -17 -3 -15 18 3 22 26 7 51 -18 35 -34z m38 -18 c0 -5 -5 -10 -11 -10 -5 0
-7 5 -4 10 3 6 8 10 11 10 2 0 4 -4 4 -10z m-200 -10 c0 -5 -4 -10 -10 -10 -5
0 -10 5 -10 10 0 6 5 10 10 10 6 0 10 -4 10 -10z m170 0 c0 -5 -10 -10 -22
-10 -19 0 -20 2 -8 10 19 13 30 13 30 0z m80 -9 c0 -5 -11 -11 -25 -13 -24 -5
-32 2 -18 15 9 10 43 8 43 -2z m-183 -27 c-3 -3 -12 -4 -19 -1 -8 3 -5 6 6 6
11 1 17 -2 13 -5z"/>
<path d="M1880 759 c0 -5 6 -12 14 -15 9 -3 12 -13 9 -22 -4 -13 -3 -14 6 -6
6 6 9 18 6 27 -7 18 -35 31 -35 16z"/>
<path d="M1732 696 c-10 -23 -9 -24 19 -21 16 2 46 9 66 14 20 6 48 8 62 6 21
-4 20 -2 -7 10 -22 10 -38 12 -45 7 -7 -6 -27 -13 -44 -17 -28 -5 -32 -4 -27
9 10 26 -12 18 -24 -8z"/>
<path d="M1197 666 c-10 -8 -28 -12 -40 -9 -12 2 -7 -3 12 -11 43 -21 57 -20
40 1 -12 15 -12 16 3 10 12 -4 15 -2 11 9 -3 7 -6 14 -7 14 0 0 -9 -7 -19 -14z"/>
<path d="M1332 640 l-34 -5 32 -30 c25 -24 34 -27 48 -19 42 27 11 64 -46 54z
m53 -20 c4 -6 -6 -10 -22 -10 -22 0 -25 2 -13 10 19 12 27 12 35 0z"/>
<path d="M2375 610 c-8 -13 5 -13 25 0 13 8 13 10 -2 10 -9 0 -20 -4 -23 -10z"/>
<path d="M1275 600 c3 -6 -1 -7 -9 -4 -9 3 -16 1 -16 -5 0 -6 10 -11 21 -11
12 0 37 -13 56 -30 32 -29 61 -41 48 -20 -3 6 -11 10 -17 10 -6 0 -25 16 -44
35 -31 33 -53 47 -39 25z"/>
<path d="M1875 600 c3 -5 11 -10 16 -10 6 0 7 5 4 10 -3 6 -11 10 -16 10 -6 0
-7 -4 -4 -10z"/>
<path d="M1550 589 c12 -8 9 -10 -12 -6 -16 2 -28 1 -28 -2 0 -3 -3 -17 -7
-30 -4 -16 -3 -22 5 -18 13 9 42 -2 42 -15 0 -6 -7 -7 -16 -4 -14 5 -15 4 -5
-8 10 -11 8 -15 -6 -19 -12 -3 -9 -5 9 -6 21 -1 26 3 21 15 -5 13 -1 15 18 10
22 -6 23 -6 7 7 -10 8 -18 19 -18 24 0 6 -7 10 -16 9 -9 0 -19 5 -22 13 -3 10
4 12 38 6 38 -6 42 -5 37 10 -4 9 -7 19 -7 21 0 2 -12 4 -27 4 -23 0 -25 -2
-13 -11z"/>
<path d="M1390 572 c0 -11 78 -47 85 -40 4 4 -70 48 -81 48 -2 0 -4 -4 -4 -8z"/>
<path d="M1347 559 c7 -7 15 -10 18 -7 3 3 -2 9 -12 12 -14 6 -15 5 -6 -5z"/>
<path d="M1880 550 c0 -5 5 -10 11 -10 5 0 7 5 4 10 -3 6 -8 10 -11 10 -2 0
-4 -4 -4 -10z"/>
<path d="M1830 510 c-22 -6 -23 -8 -7 -15 12 -5 24 -2 35 9 17 17 12 18 -28 6z"/>
<path d="M1775 500 c3 -5 8 -10 11 -10 2 0 4 5 4 10 0 6 -5 10 -11 10 -5 0 -7
-4 -4 -10z"/>
<path d="M1435 490 c3 -5 14 -10 23 -10 15 0 15 2 2 10 -20 13 -33 13 -25 0z"/>
<path d="M1520 450 c-9 -6 -10 -10 -3 -10 6 0 18 -3 27 -6 11 -4 16 -1 16 10
0 18 -17 21 -40 6z"/>
</g>
</svg>
