<svg version="1.1" id="Layer_1" xmlns="http://www.w3.org/2000/svg" xmlns:xlink="http://www.w3.org/1999/xlink" x="0px" y="0px"
	 width="100%" viewBox="0 0 167 156" enable-background="new 0 0 167 156" xml:space="preserve">
<path fill="#02A9E1" opacity="1.000000" stroke="none" 
	d="
M92.000000,157.000000 
	C61.333336,157.000000 31.166674,157.000000 1.000008,157.000000 
	C1.000005,105.000008 1.000005,53.000019 1.000003,1.000022 
	C56.666653,1.000015 112.333305,1.000015 167.999969,1.000007 
	C167.999969,52.999981 167.999969,104.999962 167.999985,156.999969 
	C142.833328,157.000000 117.666664,157.000000 92.000000,157.000000 
M93.499985,143.933609 
	C110.496887,143.933578 127.493813,143.950821 144.490677,143.927063 
	C154.817566,143.912628 160.154022,138.584488 160.164597,128.224564 
	C160.191483,101.896141 160.185471,75.567673 160.167938,49.239235 
	C160.160660,38.314819 154.916000,33.102276 143.880722,33.076073 
	C129.050217,33.040852 114.219566,33.074917 99.389023,33.052807 
	C98.005280,33.050743 96.621811,32.859119 93.884109,32.654110 
	C101.942459,24.676352 109.114555,17.575977 116.187210,10.574063 
	C114.746567,8.710917 113.472481,7.063159 111.569618,4.602229 
	C101.792580,14.431840 92.799988,23.472778 83.160881,33.163715 
	C74.304779,24.136635 65.367477,15.026788 56.780434,6.273959 
	C54.894257,7.623710 53.198624,8.837111 50.467365,10.791603 
	C58.498337,18.629803 65.697128,25.655798 73.289993,33.066410 
	C71.303291,33.066410 69.689766,33.066391 68.076248,33.066410 
	C53.412304,33.066601 38.748238,33.030979 24.084450,33.078953 
	C13.421258,33.113838 8.007473,38.498787 8.000812,49.006050 
	C7.984122,75.334488 7.984561,101.662949 8.000566,127.991386 
	C8.007000,138.573242 13.382218,143.920700 24.012699,143.928299 
	C46.841785,143.944641 69.670891,143.933502 93.499985,143.933609 
z"/>
<path fill="#FBFEFF" opacity="1.000000" stroke="none" 
	d="
M92.999985,143.933609 
	C69.670891,143.933502 46.841785,143.944641 24.012699,143.928299 
	C13.382218,143.920700 8.007000,138.573242 8.000566,127.991386 
	C7.984561,101.662949 7.984122,75.334488 8.000812,49.006050 
	C8.007473,38.498787 13.421258,33.113838 24.084450,33.078953 
	C38.748238,33.030979 53.412304,33.066601 68.076248,33.066410 
	C69.689766,33.066391 71.303291,33.066410 73.289993,33.066410 
	C65.697128,25.655798 58.498337,18.629803 50.467365,10.791603 
	C53.198624,8.837111 54.894257,7.623710 56.780434,6.273959 
	C65.367477,15.026788 74.304779,24.136635 83.160881,33.163715 
	C92.799988,23.472778 101.792580,14.431840 111.569618,4.602229 
	C113.472481,7.063159 114.746567,8.710917 116.187210,10.574063 
	C109.114555,17.575977 101.942459,24.676352 93.884109,32.654110 
	C96.621811,32.859119 98.005280,33.050743 99.389023,33.052807 
	C114.219566,33.074917 129.050217,33.040852 143.880722,33.076073 
	C154.916000,33.102276 160.160660,38.314819 160.167938,49.239235 
	C160.185471,75.567673 160.191483,101.896141 160.164597,128.224564 
	C160.154022,138.584488 154.817566,143.912628 144.490677,143.927063 
	C127.493813,143.950821 110.496887,143.933578 92.999985,143.933609 
M90.500000,47.007320 
	C67.738953,47.007320 44.977909,47.007320 22.323111,47.007320 
	C22.323111,75.069588 22.323111,102.460060 22.323111,129.720703 
	C63.796276,129.720703 104.882019,129.720703 146.066254,129.720703 
	C146.066254,102.104996 146.066254,74.832527 146.066254,47.007320 
	C127.732132,47.007320 109.616066,47.007320 90.500000,47.007320 
z"/>
<path fill="#00A8E1" opacity="1.000000" stroke="none" 
	d="
M91.000000,47.007320 
	C109.616066,47.007320 127.732132,47.007320 146.066254,47.007320 
	C146.066254,74.832527 146.066254,102.104996 146.066254,129.720703 
	C104.882019,129.720703 63.796276,129.720703 22.323111,129.720703 
	C22.323111,102.460060 22.323111,75.069588 22.323111,47.007320 
	C44.977909,47.007320 67.738953,47.007320 91.000000,47.007320 
M63.282166,99.495560 
	C63.282166,104.838898 63.282166,110.182243 63.282166,116.308334 
	C79.962303,106.764229 95.583427,97.826073 111.831902,88.528954 
	C95.414848,79.157005 79.768394,70.224968 63.282188,60.813545 
	C63.282188,74.035736 63.282188,86.266380 63.282166,99.495560 
z"/>
<path fill="#F9FDFE" opacity="1.000000" stroke="none" 
	d="
M63.282177,98.996292 
	C63.282188,86.266380 63.282188,74.035736 63.282188,60.813545 
	C79.768394,70.224968 95.414848,79.157005 111.831902,88.528954 
	C95.583427,97.826073 79.962303,106.764229 63.282166,116.308334 
	C63.282166,110.182243 63.282166,104.838898 63.282177,98.996292 
z"/>
</svg>